<svg xmlns="http://www.w3.org/2000/svg" xmlns:xlink="http://www.w3.org/1999/xlink"><defs><filter id="filter0_d" x="0" y="0" width="20" height="32" filterUnits="userSpaceOnUse" color-interpolation-filters="sRGB"><feFlood flood-opacity="0" result="BackgroundImageFix"/><feColorMatrix in="SourceAlpha" values="0 0 0 0 0 0 0 0 0 0 0 0 0 0 0 0 0 0 127 0"/><feOffset dy="4"/><feGaussianBlur stdDeviation="2"/><feColorMatrix values="0 0 0 0 0 0 0 0 0 0 0 0 0 0 0 0 0 0 0.25 0"/><feBlend in2="BackgroundImageFix" result="effect1_dropShadow"/><feBlend in="SourceGraphic" in2="effect1_dropShadow" result="shape"/></filter><linearGradient id="paint0_linear" x1="23.774" y1="0" x2="109.785" y2="10.644" gradientUnits="userSpaceOnUse"><stop stop-color="#ED0233"/><stop offset="1" stop-color="#003EB7"/></linearGradient><linearGradient id="paint1_linear" x1="18" y1="49.52" x2="58.186" y2="9.184" gradientUnits="userSpaceOnUse"><stop stop-color="#003D85"/><stop offset=".885" stop-color="#B80027"/></linearGradient><filter id="filter0_d" x="0" y="0" width="108" height="108" filterUnits="userSpaceOnUse" color-interpolation-filters="sRGB"><feFlood flood-opacity="0" result="BackgroundImageFix"/><feColorMatrix in="SourceAlpha" values="0 0 0 0 0 0 0 0 0 0 0 0 0 0 0 0 0 0 127 0"/><feOffset dy="4"/><feGaussianBlur stdDeviation="2"/><feColorMatrix values="0 0 0 0 0 0 0 0 0 0 0 0 0 0 0 0 0 0 0.25 0"/><feBlend in2="BackgroundImageFix" result="effect1_dropShadow"/><feBlend in="SourceGraphic" in2="effect1_dropShadow" result="shape"/></filter></defs><symbol id="icon-arrow-left"><path d="M17 33L1 17 17 1" stroke="#AFAFAF"/></symbol><symbol id="icon-arrow-right"><path d="M1 1l16 16L1 33" stroke="#AFAFAF"/></symbol><symbol id="icon-fb"><g filter="url(#filter0_d)"><path d="M15.548.005L12.67 0C9.436 0 7.347 2.318 7.347 5.906V8.63H4.453c-.25 0-.453.219-.453.49v3.945c0 .27.203.49.453.49h2.894v9.956c0 .27.202.489.452.489h3.776c.25 0 .453-.22.453-.49v-9.956h3.383c.25 0 .453-.219.453-.489l.001-3.946a.51.51 0 00-.132-.346.436.436 0 00-.32-.143h-3.386V6.32c0-1.11.245-1.673 1.582-1.673h1.939c.25 0 .452-.22.452-.49V.494c0-.27-.202-.489-.452-.489z" fill="#fff"/></g></symbol><symbol id="icon-insta"><path d="M17.503 0H6.497A6.504 6.504 0 000 6.497v11.007A6.504 6.504 0 006.497 24h11.007A6.504 6.504 0 0024 17.504V6.497A6.504 6.504 0 0017.503 0zM12 18.562A6.57 6.57 0 015.438 12 6.57 6.57 0 0112 5.438 6.57 6.57 0 0118.562 12 6.57 6.57 0 0112 18.562zm6.72-11.577c-1.07 0-1.94-.87-1.94-1.939 0-1.07.87-1.94 1.94-1.94 1.069 0 1.939.87 1.939 1.94 0 1.07-.87 1.94-1.94 1.94z" fill="#fff"/><path d="M12 6.844A5.161 5.161 0 006.845 12 5.161 5.161 0 0012 17.155 5.161 5.161 0 0017.155 12 5.161 5.161 0 0012 6.844zm6.719-2.33a.533.533 0 10.001 1.066.533.533 0 00-.001-1.066z" fill="#fff"/></symbol><symbol id="icon-play-btn"><g filter="url(#filter0_d)"><circle cx="54" cy="50" r="49" stroke="url(#paint0_linear)" stroke-opacity=".2" stroke-width="2"/><circle cx="54" cy="50" r="36" fill="url(#paint1_linear)"/><path d="M63 49.5l-12.75 7.361V42.14L63 49.5z" fill="#fff"/></g></symbol><symbol id="icon-play"><path d="M13 7.5L.25 14.861V.14L13 7.5z" fill="#fff"/></symbol><symbol id="icon-rub"><path fill-rule="evenodd" clip-rule="evenodd" d="M0 17h6v6H0v-6z" fill="#102654"/><path fill-rule="evenodd" clip-rule="evenodd" d="M3.659 28.321V18h6v10.321H21v6H9.659V42h-6v-7.679H0v-6h3.659z" fill="#102654"/><path fill-rule="evenodd" clip-rule="evenodd" d="M18.5 6H10v11h8.5a5.5 5.5 0 100-11zM4 0v23h14.5C24.851 23 30 17.851 30 11.5S24.851 0 18.5 0H4z" fill="#102654"/></symbol><symbol id="icon-vk"><path fill-rule="evenodd" clip-rule="evenodd" d="M20.655 8.266c.796.744 1.637 1.444 2.35 2.263.316.364.615.74.843 1.162.324.6.03 1.26-.532 1.297l-3.496-.002c-.902.072-1.621-.276-2.226-.866-.484-.472-.933-.974-1.398-1.462a3.27 3.27 0 00-.63-.535c-.476-.297-.89-.206-1.164.27-.277.485-.34 1.022-.368 1.562-.037.788-.286.995-1.113 1.031-1.767.08-3.445-.176-5.003-1.03-1.374-.752-2.44-1.814-3.366-3.016C2.746 6.598 1.364 4.026.122 1.38-.159.786.045.466.732.455A97.704 97.704 0 014.156.452c.464.007.77.261.95.68.617 1.453 1.372 2.835 2.32 4.115.252.341.51.682.876.922.405.266.714.178.905-.254.12-.274.174-.57.201-.863.09-1.01.102-2.019-.056-3.025C9.255 1.399 8.885.992 8.23.873c-.334-.06-.284-.18-.123-.362C8.388.196 8.653 0 9.18 0h3.951c.622.118.76.385.845.984l.004 4.201c-.007.232.12.92.557 1.074.35.11.58-.158.79-.37.946-.961 1.62-2.097 2.224-3.273.268-.517.498-1.054.721-1.591.165-.398.425-.594.893-.586l3.803.004c.113 0 .227.001.336.02.641.104.817.368.619.967-.312.94-.919 1.722-1.512 2.51-.634.84-1.313 1.65-1.941 2.495-.578.772-.532 1.16.185 1.831z" fill="#fff"/></symbol></svg>