<svg width="20" height="32" fill="none" xmlns="http://www.w3.org/2000/svg"><g filter="url(#filter0_d)"><path d="M15.548.005L12.67 0C9.436 0 7.347 2.318 7.347 5.906V8.63H4.453c-.25 0-.453.219-.453.49v3.945c0 .27.203.49.453.49h2.894v9.956c0 .27.202.489.452.489h3.776c.25 0 .453-.22.453-.49v-9.956h3.383c.25 0 .453-.219.453-.489l.001-3.946a.51.51 0 00-.132-.346.436.436 0 00-.32-.143h-3.386V6.32c0-1.11.245-1.673 1.582-1.673h1.939c.25 0 .452-.22.452-.49V.494c0-.27-.202-.489-.452-.489z" fill="#fff"/></g><defs><filter id="filter0_d" x="0" y="0" width="20" height="32" filterUnits="userSpaceOnUse" color-interpolation-filters="sRGB"><feFlood flood-opacity="0" result="BackgroundImageFix"/><feColorMatrix in="SourceAlpha" values="0 0 0 0 0 0 0 0 0 0 0 0 0 0 0 0 0 0 127 0"/><feOffset dy="4"/><feGaussianBlur stdDeviation="2"/><feColorMatrix values="0 0 0 0 0 0 0 0 0 0 0 0 0 0 0 0 0 0 0.25 0"/><feBlend in2="BackgroundImageFix" result="effect1_dropShadow"/><feBlend in="SourceGraphic" in2="effect1_dropShadow" result="shape"/></filter></defs></svg>